HIERARCHY
ROOT hip
{
	OFFSET 0.000000 0.000000 0.000000 
	CHANNELS 6 Xposition Yposition Zposition Xrotation Zrotation Yrotation
	JOINT abdomen
	{
		OFFSET 0.000000 3.402643 0.000000 
		CHANNELS 3 Xrotation Zrotation Yrotation
		JOINT chest
		{
			OFFSET 0.000000 8.438565 -0.680529 
			CHANNELS 3 Xrotation Zrotation Yrotation
			JOINT neck
			{
				OFFSET 0.000000 10.207942 -0.272212 
				CHANNELS 3 Xrotation Zrotation Yrotation
				JOINT head
				{
					OFFSET 0.000000 3.130431 0.000000 
					CHANNELS 3 Xrotation Zrotation Yrotation
					End Site
					{
						OFFSET 0.000000 3.130435 0.000000 
					}
				}
			}
			JOINT lCollar
			{
				OFFSET 3.470700 6.669187 -0.816635 
				CHANNELS 3 Yrotation Zrotation Xrotation
				JOINT lShldr
				{
					OFFSET 3.198488 0.000000 0.000000 
					CHANNELS 3 Zrotation Yrotation Xrotation
					JOINT lForeArm
					{
						OFFSET 10.139888 0.000000 0.000000 
						CHANNELS 3 Yrotation Zrotation Xrotation
						JOINT lHand
						{
							OFFSET 8.370511 0.000000 0.000000 
							CHANNELS 3 Zrotation Yrotation Xrotation
							End Site
							{
								OFFSET 4.083176 0.000000 0.000000 
							}
						}
					}
				}
			}
			JOINT rCollar
			{
				OFFSET -3.470700 6.669187 -0.816635 
				CHANNELS 3 Yrotation Zrotation Xrotation
				JOINT rShldr
				{
					OFFSET -3.198488 0.000000 0.000000 
					CHANNELS 3 Zrotation Yrotation Xrotation
					JOINT rForeArm
					{
						OFFSET -10.139888 0.000000 0.000000 
						CHANNELS 3 Yrotation Zrotation Xrotation
						JOINT rHand
						{
							OFFSET -8.370511 0.000000 0.000000 
							CHANNELS 3 Zrotation Yrotation Xrotation
							End Site
							{
								OFFSET -4.083176 0.000000 0.000000 
							}
						}
					}
				}
			}
		}
	}
	JOINT lThigh
	{
		OFFSET 5.308129 -1.633274 1.361059 
		CHANNELS 3 Xrotation Zrotation Yrotation
		JOINT lShin
		{
			OFFSET -2.041588 -20.007561 0.000000 
			CHANNELS 3 Xrotation Zrotation Yrotation
			JOINT lFoot
			{
				OFFSET 0.000000 -19.190928 -1.224953 
				CHANNELS 3 Xrotation Yrotation Zrotation
				End Site
				{
					OFFSET 0.000000 -2.449906 4.627600 
				}
			}
		}
	}
	JOINT rThigh
	{
		OFFSET -5.308129 -1.633274 1.361059 
		CHANNELS 3 Xrotation Zrotation Yrotation
		JOINT rShin
		{
			OFFSET 2.041588 -20.007561 0.000000 
			CHANNELS 3 Xrotation Zrotation Yrotation
			JOINT rFoot
			{
				OFFSET 0.000000 -19.190928 -1.224953 
				CHANNELS 3 Xrotation Yrotation Zrotation
				End Site
				{
					OFFSET 0.000000 -2.449906 4.627600 
				}
			}
		}
	}
}
MOTION
Frames: 6
Frame Time: 0.011111
0.330190 52.489090 -3.741204 11.219851 2.114891 86.165192 33.200169 -16.075428 -6.645682 -13.447752 3.857691 0.677592 -22.112162 4.169244 0.120495 29.555578 -1.454023 1.628942 3.134826 -1.098498 2.090950 -69.122910 -48.389526 53.155266 -56.869579 8.936702 11.019725 8.524705 12.647240 -43.704479 -2.361975 3.467811 1.820220 68.115677 27.804905 39.373833 57.807915 -9.067345 11.444266 -8.534408 -12.637552 52.279160 19.835415 -9.068227 -1.356269 8.757673 -6.007219 -1.930511 -22.894520 -5.601794 -4.888003 -24.255484 -21.540636 -4.327904 26.748512 5.496602 4.417875 -18.174223 -2.667801 1.982246 
0.748751 52.417953 -3.764173 11.323533 1.862656 86.381172 33.090092 -15.884800 -6.904836 -13.662609 3.946016 0.572160 -22.415934 4.197427 0.139927 29.817976 -1.040045 1.794915 3.134826 -1.098498 2.090950 -69.116875 -48.282181 53.353058 -56.860096 8.939434 11.017873 8.524705 12.647240 -43.606827 -2.361975 3.467811 1.820220 68.010727 27.484074 39.141972 57.913589 -9.077714 11.490918 -8.534408 -12.637552 52.298691 20.135406 -9.149640 -1.392399 8.753042 -6.014074 -1.930962 -23.077379 -5.894665 -5.019195 -24.186775 -21.628180 -4.362089 24.061199 5.604985 4.043069 -17.939737 -2.408681 2.112398 
1.180391 52.352867 -3.782996 11.502492 1.599305 86.531845 32.668903 -15.868623 -7.161576 -12.954885 4.417264 0.538714 -22.742039 3.991850 0.255498 29.416986 -0.720278 2.031894 3.134826 -1.098498 2.090950 -69.475006 -48.830284 53.447102 -56.869579 8.936702 11.019725 8.524705 12.647240 -43.538464 -2.361975 3.467811 1.820220 67.522461 27.920603 39.069996 57.881134 -9.071391 11.470524 -8.534408 -12.637552 52.367043 20.485620 -9.285750 -1.353163 8.617317 -6.004735 -1.908305 -23.218546 -6.278194 -5.205181 -24.195339 -21.773447 -4.220558 21.404678 5.702652 3.686148 -17.776625 -2.028334 2.231668 
1.606608 52.275024 -3.784271 11.863852 1.291419 86.688065 32.421524 -16.089025 -7.260042 -13.101668 4.438965 0.519486 -22.631727 3.839703 0.177971 29.188551 -0.014961 1.993569 3.134826 -1.098498 2.090950 -69.386620 -48.715225 53.916126 -56.965897 8.952197 11.063593 8.524705 12.647240 -43.479866 -2.361975 3.467811 1.820220 67.605537 27.567848 38.618633 57.764523 -9.059206 11.423616 -8.534408 -12.637552 52.415874 20.757460 -9.578030 -1.331094 8.606096 -6.003763 -1.907384 -23.408319 -6.764177 -5.417797 -24.459126 -22.095879 -3.666001 18.978197 5.789070 3.336092 -17.726650 -1.538137 2.388863 
2.037611 52.184425 -3.785228 12.104361 0.997552 86.947205 32.221806 -16.157276 -7.377180 -13.219180 4.442625 0.481235 -22.605749 3.919349 0.041073 29.017673 0.407906 1.879196 3.134826 -1.098498 2.090950 -69.311287 -48.648697 54.278004 -56.933250 8.945695 11.051747 8.524705 12.647240 -43.636120 -2.361975 3.467811 1.820220 67.768440 27.243288 38.086082 57.647888 -9.046698 11.376831 -8.534408 -12.637552 52.445175 21.028229 -9.752542 -1.596774 8.694261 -6.013762 -1.915902 -23.769329 -7.082774 -5.584669 -24.663050 -22.368256 -3.095697 16.729774 5.859597 3.016868 -17.673325 -0.904142 2.571857 
2.482651 52.093182 -3.804370 12.157936 0.729566 87.184608 31.989311 -15.982864 -7.342593 -13.327425 4.358517 0.436058 -22.590872 4.059172 -0.079732 28.768675 0.781881 1.777586 3.134826 -1.098498 2.090950 -69.286423 -48.571136 54.611942 -56.880516 8.938684 11.019909 8.524705 12.647240 -43.724014 -2.361975 3.467811 1.820220 67.911125 26.899458 37.552979 57.668278 -9.045615 11.378978 -8.534408 -12.637552 52.493999 21.346724 -9.784528 -1.883051 8.635036 -6.013560 -1.910594 -24.093071 -7.452539 -5.763347 -24.732250 -22.457008 -2.876602 14.695008 5.897502 2.749581 -17.010769 -0.280804 2.820998 
